<mxfile host="app.diagrams.net" agent="Mozilla/5.0 (Windows NT 10.0; Win64; x64) AppleWebKit/537.36 (KHTML, like Gecko) Chrome/129.0.0.0 Safari/537.36" version="24.7.17">
  <diagram name="Page-1" id="6xReeUZJzFyiV2L-Zr00">
    <mxGraphModel dx="2884" dy="1992" grid="1" gridSize="10" guides="1" tooltips="1" connect="1" arrows="1" fold="1" page="1" pageScale="1" pageWidth="850" pageHeight="1100" math="0" shadow="0">
      <root>
        <mxCell id="0" />
        <mxCell id="1" parent="0" />
        <mxCell id="d-lJAG2xxgMc8Fnp8zXW-112" value="" style="endArrow=none;html=1;rounded=0;exitX=0.5;exitY=0;exitDx=0;exitDy=0;entryX=0.5;entryY=1;entryDx=0;entryDy=0;" edge="1" parent="1" source="d-lJAG2xxgMc8Fnp8zXW-107" target="d-lJAG2xxgMc8Fnp8zXW-173">
          <mxGeometry relative="1" as="geometry">
            <mxPoint x="590" y="480" as="sourcePoint" />
            <mxPoint x="555" y="240" as="targetPoint" />
            <Array as="points">
              <mxPoint x="920" y="280" />
            </Array>
          </mxGeometry>
        </mxCell>
        <mxCell id="d-lJAG2xxgMc8Fnp8zXW-162" value="Sellers" style="whiteSpace=wrap;html=1;align=center;fillColor=#99CCFF;" vertex="1" parent="1">
          <mxGeometry x="290" y="240" width="100" height="40" as="geometry" />
        </mxCell>
        <mxCell id="d-lJAG2xxgMc8Fnp8zXW-163" value="Store description" style="ellipse;whiteSpace=wrap;html=1;align=center;" vertex="1" parent="1">
          <mxGeometry x="230" y="330" width="100" height="40" as="geometry" />
        </mxCell>
        <mxCell id="d-lJAG2xxgMc8Fnp8zXW-164" value="Seller Email" style="ellipse;whiteSpace=wrap;html=1;align=center;" vertex="1" parent="1">
          <mxGeometry x="140" y="230" width="100" height="40" as="geometry" />
        </mxCell>
        <mxCell id="d-lJAG2xxgMc8Fnp8zXW-165" value="Seller Name" style="ellipse;whiteSpace=wrap;html=1;align=center;" vertex="1" parent="1">
          <mxGeometry x="140" y="180" width="100" height="40" as="geometry" />
        </mxCell>
        <mxCell id="d-lJAG2xxgMc8Fnp8zXW-166" value="Seller ID" style="ellipse;whiteSpace=wrap;html=1;align=center;fontStyle=4;" vertex="1" parent="1">
          <mxGeometry x="230" y="130" width="100" height="40" as="geometry" />
        </mxCell>
        <mxCell id="d-lJAG2xxgMc8Fnp8zXW-167" value="Contact numer" style="ellipse;shape=doubleEllipse;margin=3;whiteSpace=wrap;html=1;align=center;" vertex="1" parent="1">
          <mxGeometry x="140" y="280" width="100" height="40" as="geometry" />
        </mxCell>
        <mxCell id="d-lJAG2xxgMc8Fnp8zXW-168" value="" style="endArrow=none;html=1;rounded=0;exitX=0.58;exitY=1.092;exitDx=0;exitDy=0;exitPerimeter=0;entryX=0.5;entryY=0;entryDx=0;entryDy=0;" edge="1" parent="1" source="d-lJAG2xxgMc8Fnp8zXW-166" target="d-lJAG2xxgMc8Fnp8zXW-162">
          <mxGeometry relative="1" as="geometry">
            <mxPoint x="280" y="270" as="sourcePoint" />
            <mxPoint x="440" y="270" as="targetPoint" />
          </mxGeometry>
        </mxCell>
        <mxCell id="d-lJAG2xxgMc8Fnp8zXW-169" value="" style="endArrow=none;html=1;rounded=0;exitX=0.667;exitY=-0.008;exitDx=0;exitDy=0;exitPerimeter=0;entryX=0.5;entryY=1;entryDx=0;entryDy=0;" edge="1" parent="1" source="d-lJAG2xxgMc8Fnp8zXW-163" target="d-lJAG2xxgMc8Fnp8zXW-162">
          <mxGeometry relative="1" as="geometry">
            <mxPoint x="280" y="270" as="sourcePoint" />
            <mxPoint x="440" y="270" as="targetPoint" />
          </mxGeometry>
        </mxCell>
        <mxCell id="d-lJAG2xxgMc8Fnp8zXW-170" value="" style="endArrow=none;html=1;rounded=0;exitX=1.007;exitY=0.325;exitDx=0;exitDy=0;exitPerimeter=0;entryX=0.25;entryY=1;entryDx=0;entryDy=0;" edge="1" parent="1" source="d-lJAG2xxgMc8Fnp8zXW-167" target="d-lJAG2xxgMc8Fnp8zXW-162">
          <mxGeometry relative="1" as="geometry">
            <mxPoint x="280" y="270" as="sourcePoint" />
            <mxPoint x="440" y="270" as="targetPoint" />
          </mxGeometry>
        </mxCell>
        <mxCell id="d-lJAG2xxgMc8Fnp8zXW-171" value="" style="endArrow=none;html=1;rounded=0;exitX=1;exitY=0.5;exitDx=0;exitDy=0;entryX=0;entryY=0.5;entryDx=0;entryDy=0;" edge="1" parent="1" source="d-lJAG2xxgMc8Fnp8zXW-164" target="d-lJAG2xxgMc8Fnp8zXW-162">
          <mxGeometry relative="1" as="geometry">
            <mxPoint x="280" y="270" as="sourcePoint" />
            <mxPoint x="440" y="270" as="targetPoint" />
          </mxGeometry>
        </mxCell>
        <mxCell id="d-lJAG2xxgMc8Fnp8zXW-172" value="" style="endArrow=none;html=1;rounded=0;exitX=1;exitY=0.5;exitDx=0;exitDy=0;entryX=0.25;entryY=0;entryDx=0;entryDy=0;" edge="1" parent="1" source="d-lJAG2xxgMc8Fnp8zXW-165" target="d-lJAG2xxgMc8Fnp8zXW-162">
          <mxGeometry relative="1" as="geometry">
            <mxPoint x="280" y="270" as="sourcePoint" />
            <mxPoint x="440" y="270" as="targetPoint" />
          </mxGeometry>
        </mxCell>
        <mxCell id="d-lJAG2xxgMc8Fnp8zXW-325" style="edgeStyle=orthogonalEdgeStyle;rounded=0;orthogonalLoop=1;jettySize=auto;html=1;exitX=1;exitY=0.5;exitDx=0;exitDy=0;" edge="1" parent="1" source="d-lJAG2xxgMc8Fnp8zXW-173">
          <mxGeometry relative="1" as="geometry">
            <mxPoint x="720" y="260.3333333333335" as="targetPoint" />
          </mxGeometry>
        </mxCell>
        <mxCell id="d-lJAG2xxgMc8Fnp8zXW-173" value="Product" style="whiteSpace=wrap;html=1;align=center;fillColor=#6666FF;" vertex="1" parent="1">
          <mxGeometry x="630" y="240" width="100" height="40" as="geometry" />
        </mxCell>
        <mxCell id="d-lJAG2xxgMc8Fnp8zXW-174" value="Product ID" style="ellipse;whiteSpace=wrap;html=1;align=center;fontStyle=4;" vertex="1" parent="1">
          <mxGeometry x="870" y="210" width="100" height="40" as="geometry" />
        </mxCell>
        <mxCell id="d-lJAG2xxgMc8Fnp8zXW-175" value="Price" style="ellipse;whiteSpace=wrap;html=1;align=center;" vertex="1" parent="1">
          <mxGeometry x="850" y="80" width="100" height="40" as="geometry" />
        </mxCell>
        <mxCell id="d-lJAG2xxgMc8Fnp8zXW-176" value="Description" style="ellipse;whiteSpace=wrap;html=1;align=center;" vertex="1" parent="1">
          <mxGeometry x="840" y="20" width="100" height="40" as="geometry" />
        </mxCell>
        <mxCell id="d-lJAG2xxgMc8Fnp8zXW-177" value="Category" style="ellipse;whiteSpace=wrap;html=1;align=center;" vertex="1" parent="1">
          <mxGeometry x="880" y="140" width="100" height="40" as="geometry" />
        </mxCell>
        <mxCell id="d-lJAG2xxgMc8Fnp8zXW-178" value="Name" style="ellipse;whiteSpace=wrap;html=1;align=center;" vertex="1" parent="1">
          <mxGeometry x="470" y="160" width="100" height="40" as="geometry" />
        </mxCell>
        <mxCell id="d-lJAG2xxgMc8Fnp8zXW-179" value="" style="endArrow=none;html=1;rounded=0;entryX=0;entryY=0.5;entryDx=0;entryDy=0;exitX=0.5;exitY=0;exitDx=0;exitDy=0;" edge="1" parent="1" source="d-lJAG2xxgMc8Fnp8zXW-173" target="d-lJAG2xxgMc8Fnp8zXW-176">
          <mxGeometry relative="1" as="geometry">
            <mxPoint x="720" y="270" as="sourcePoint" />
            <mxPoint x="740" y="270" as="targetPoint" />
          </mxGeometry>
        </mxCell>
        <mxCell id="d-lJAG2xxgMc8Fnp8zXW-180" value="" style="endArrow=none;html=1;rounded=0;exitX=0;exitY=0.75;exitDx=0;exitDy=0;exitPerimeter=0;entryX=1;entryY=0.5;entryDx=0;entryDy=0;" edge="1" parent="1" source="d-lJAG2xxgMc8Fnp8zXW-174" target="d-lJAG2xxgMc8Fnp8zXW-173">
          <mxGeometry relative="1" as="geometry">
            <mxPoint x="580" y="270" as="sourcePoint" />
            <mxPoint x="740" y="270" as="targetPoint" />
          </mxGeometry>
        </mxCell>
        <mxCell id="d-lJAG2xxgMc8Fnp8zXW-181" value="" style="endArrow=none;html=1;rounded=0;exitX=0.5;exitY=1;exitDx=0;exitDy=0;entryX=1;entryY=0;entryDx=0;entryDy=0;" edge="1" parent="1" source="d-lJAG2xxgMc8Fnp8zXW-177" target="d-lJAG2xxgMc8Fnp8zXW-173">
          <mxGeometry relative="1" as="geometry">
            <mxPoint x="580" y="270" as="sourcePoint" />
            <mxPoint x="740" y="270" as="targetPoint" />
          </mxGeometry>
        </mxCell>
        <mxCell id="d-lJAG2xxgMc8Fnp8zXW-182" value="" style="endArrow=none;html=1;rounded=0;exitX=0.5;exitY=1;exitDx=0;exitDy=0;entryX=0.75;entryY=0;entryDx=0;entryDy=0;" edge="1" parent="1" source="d-lJAG2xxgMc8Fnp8zXW-175" target="d-lJAG2xxgMc8Fnp8zXW-173">
          <mxGeometry relative="1" as="geometry">
            <mxPoint x="580" y="270" as="sourcePoint" />
            <mxPoint x="740" y="270" as="targetPoint" />
          </mxGeometry>
        </mxCell>
        <mxCell id="d-lJAG2xxgMc8Fnp8zXW-183" value="" style="endArrow=none;html=1;rounded=0;exitX=0.5;exitY=1;exitDx=0;exitDy=0;entryX=0;entryY=0;entryDx=0;entryDy=0;" edge="1" parent="1" source="d-lJAG2xxgMc8Fnp8zXW-178" target="d-lJAG2xxgMc8Fnp8zXW-173">
          <mxGeometry relative="1" as="geometry">
            <mxPoint x="580" y="270" as="sourcePoint" />
            <mxPoint x="670" y="230" as="targetPoint" />
          </mxGeometry>
        </mxCell>
        <mxCell id="d-lJAG2xxgMc8Fnp8zXW-184" value="Adds" style="shape=rhombus;perimeter=rhombusPerimeter;whiteSpace=wrap;html=1;align=center;" vertex="1" parent="1">
          <mxGeometry x="440" y="230" width="120" height="60" as="geometry" />
        </mxCell>
        <mxCell id="d-lJAG2xxgMc8Fnp8zXW-185" value="" style="shape=link;html=1;rounded=0;entryX=0;entryY=0.5;entryDx=0;entryDy=0;" edge="1" parent="1" source="d-lJAG2xxgMc8Fnp8zXW-184" target="d-lJAG2xxgMc8Fnp8zXW-173">
          <mxGeometry relative="1" as="geometry">
            <mxPoint x="370" y="349.5" as="sourcePoint" />
            <mxPoint x="530" y="349.5" as="targetPoint" />
          </mxGeometry>
        </mxCell>
        <mxCell id="d-lJAG2xxgMc8Fnp8zXW-186" value="N" style="resizable=0;html=1;whiteSpace=wrap;align=right;verticalAlign=bottom;" connectable="0" vertex="1" parent="d-lJAG2xxgMc8Fnp8zXW-185">
          <mxGeometry x="1" relative="1" as="geometry" />
        </mxCell>
        <mxCell id="d-lJAG2xxgMc8Fnp8zXW-187" value="" style="shape=link;html=1;rounded=0;exitX=0;exitY=0.5;exitDx=0;exitDy=0;entryX=1;entryY=0.5;entryDx=0;entryDy=0;" edge="1" parent="1" source="d-lJAG2xxgMc8Fnp8zXW-184" target="d-lJAG2xxgMc8Fnp8zXW-162">
          <mxGeometry relative="1" as="geometry">
            <mxPoint x="450" y="310" as="sourcePoint" />
            <mxPoint x="400" y="270" as="targetPoint" />
          </mxGeometry>
        </mxCell>
        <mxCell id="d-lJAG2xxgMc8Fnp8zXW-188" value="M" style="resizable=0;html=1;whiteSpace=wrap;align=right;verticalAlign=bottom;" connectable="0" vertex="1" parent="d-lJAG2xxgMc8Fnp8zXW-187">
          <mxGeometry x="1" relative="1" as="geometry">
            <mxPoint x="10" y="-10" as="offset" />
          </mxGeometry>
        </mxCell>
        <mxCell id="d-lJAG2xxgMc8Fnp8zXW-189" value="M" style="resizable=0;html=1;whiteSpace=wrap;align=right;verticalAlign=bottom;" connectable="0" vertex="1" parent="1">
          <mxGeometry x="709.4080605648933" y="299.6079362183059" as="geometry" />
        </mxCell>
        <mxCell id="d-lJAG2xxgMc8Fnp8zXW-215" value="" style="endArrow=none;html=1;rounded=0;exitX=0.5;exitY=0;exitDx=0;exitDy=0;entryX=1;entryY=0.5;entryDx=0;entryDy=0;" edge="1" parent="1" source="d-lJAG2xxgMc8Fnp8zXW-207" target="d-lJAG2xxgMc8Fnp8zXW-173">
          <mxGeometry relative="1" as="geometry">
            <mxPoint x="550" y="610" as="sourcePoint" />
            <mxPoint x="1020" y="250" as="targetPoint" />
            <Array as="points">
              <mxPoint x="980" y="260" />
            </Array>
          </mxGeometry>
        </mxCell>
        <mxCell id="d-lJAG2xxgMc8Fnp8zXW-216" value="1" style="resizable=0;html=1;whiteSpace=wrap;align=right;verticalAlign=bottom;" connectable="0" vertex="1" parent="d-lJAG2xxgMc8Fnp8zXW-215">
          <mxGeometry x="1" relative="1" as="geometry">
            <mxPoint x="14" as="offset" />
          </mxGeometry>
        </mxCell>
        <mxCell id="d-lJAG2xxgMc8Fnp8zXW-221" value="" style="group" vertex="1" connectable="0" parent="1">
          <mxGeometry x="40" y="640" width="1000" height="620" as="geometry" />
        </mxCell>
        <mxCell id="d-lJAG2xxgMc8Fnp8zXW-69" value="" style="group" vertex="1" connectable="0" parent="d-lJAG2xxgMc8Fnp8zXW-221">
          <mxGeometry x="80" width="730" height="152.61538461538464" as="geometry" />
        </mxCell>
        <mxCell id="d-lJAG2xxgMc8Fnp8zXW-70" value="Customer" style="whiteSpace=wrap;html=1;align=center;fillColor=#FF66B3;" vertex="1" parent="d-lJAG2xxgMc8Fnp8zXW-69">
          <mxGeometry x="102.8169014084507" y="61.04615384615386" width="102.8169014084507" height="40.6974358974359" as="geometry" />
        </mxCell>
        <mxCell id="d-lJAG2xxgMc8Fnp8zXW-71" value="Customer ID" style="ellipse;whiteSpace=wrap;html=1;align=center;fontStyle=4;" vertex="1" parent="d-lJAG2xxgMc8Fnp8zXW-69">
          <mxGeometry x="215.91549295774647" y="10.174358974358976" width="102.8169014084507" height="40.6974358974359" as="geometry" />
        </mxCell>
        <mxCell id="d-lJAG2xxgMc8Fnp8zXW-72" value="Password" style="ellipse;whiteSpace=wrap;html=1;align=center;" vertex="1" parent="d-lJAG2xxgMc8Fnp8zXW-69">
          <mxGeometry x="215.91549295774647" y="111.91794871794873" width="102.8169014084507" height="40.6974358974359" as="geometry" />
        </mxCell>
        <mxCell id="d-lJAG2xxgMc8Fnp8zXW-73" value="Email" style="ellipse;whiteSpace=wrap;html=1;align=center;" vertex="1" parent="d-lJAG2xxgMc8Fnp8zXW-69">
          <mxGeometry y="111.91794871794873" width="102.8169014084507" height="40.6974358974359" as="geometry" />
        </mxCell>
        <mxCell id="d-lJAG2xxgMc8Fnp8zXW-74" value="Name" style="ellipse;whiteSpace=wrap;html=1;align=center;" vertex="1" parent="d-lJAG2xxgMc8Fnp8zXW-69">
          <mxGeometry y="10.174358974358976" width="102.8169014084507" height="40.6974358974359" as="geometry" />
        </mxCell>
        <mxCell id="d-lJAG2xxgMc8Fnp8zXW-75" value="" style="endArrow=none;html=1;rounded=0;entryX=0.5;entryY=0;entryDx=0;entryDy=0;exitX=0;exitY=1;exitDx=0;exitDy=0;" edge="1" parent="d-lJAG2xxgMc8Fnp8zXW-69" source="d-lJAG2xxgMc8Fnp8zXW-70" target="d-lJAG2xxgMc8Fnp8zXW-73">
          <mxGeometry relative="1" as="geometry">
            <mxPoint x="20.56338028169014" y="-50.871794871794876" as="sourcePoint" />
            <mxPoint x="185.07042253521126" y="-50.871794871794876" as="targetPoint" />
          </mxGeometry>
        </mxCell>
        <mxCell id="d-lJAG2xxgMc8Fnp8zXW-76" value="" style="endArrow=none;html=1;rounded=0;exitX=1;exitY=1;exitDx=0;exitDy=0;entryX=0.5;entryY=0;entryDx=0;entryDy=0;" edge="1" parent="d-lJAG2xxgMc8Fnp8zXW-69" source="d-lJAG2xxgMc8Fnp8zXW-70" target="d-lJAG2xxgMc8Fnp8zXW-72">
          <mxGeometry relative="1" as="geometry">
            <mxPoint x="20.56338028169014" y="-50.871794871794876" as="sourcePoint" />
            <mxPoint x="236.4788732394366" y="111.91794871794873" as="targetPoint" />
          </mxGeometry>
        </mxCell>
        <mxCell id="d-lJAG2xxgMc8Fnp8zXW-77" value="" style="endArrow=none;html=1;rounded=0;exitX=0;exitY=1;exitDx=0;exitDy=0;entryX=1;entryY=0;entryDx=0;entryDy=0;" edge="1" parent="d-lJAG2xxgMc8Fnp8zXW-69" source="d-lJAG2xxgMc8Fnp8zXW-71" target="d-lJAG2xxgMc8Fnp8zXW-70">
          <mxGeometry relative="1" as="geometry">
            <mxPoint x="20.56338028169014" y="-50.871794871794876" as="sourcePoint" />
            <mxPoint x="185.07042253521126" y="-50.871794871794876" as="targetPoint" />
          </mxGeometry>
        </mxCell>
        <mxCell id="d-lJAG2xxgMc8Fnp8zXW-78" value="" style="endArrow=none;html=1;rounded=0;exitX=1;exitY=1;exitDx=0;exitDy=0;entryX=0;entryY=0;entryDx=0;entryDy=0;" edge="1" parent="d-lJAG2xxgMc8Fnp8zXW-69" source="d-lJAG2xxgMc8Fnp8zXW-74" target="d-lJAG2xxgMc8Fnp8zXW-70">
          <mxGeometry relative="1" as="geometry">
            <mxPoint x="20.56338028169014" y="-50.871794871794876" as="sourcePoint" />
            <mxPoint x="185.07042253521126" y="-50.871794871794876" as="targetPoint" />
          </mxGeometry>
        </mxCell>
        <mxCell id="d-lJAG2xxgMc8Fnp8zXW-79" value="Order" style="whiteSpace=wrap;html=1;align=center;fillColor=#FF9933;" vertex="1" parent="d-lJAG2xxgMc8Fnp8zXW-69">
          <mxGeometry x="493.52112676056333" y="61.04615384615386" width="102.8169014084507" height="40.6974358974359" as="geometry" />
        </mxCell>
        <mxCell id="d-lJAG2xxgMc8Fnp8zXW-80" value="Order ID" style="ellipse;whiteSpace=wrap;html=1;align=center;fontStyle=4;" vertex="1" parent="d-lJAG2xxgMc8Fnp8zXW-69">
          <mxGeometry x="431.83098591549293" width="102.8169014084507" height="40.6974358974359" as="geometry" />
        </mxCell>
        <mxCell id="d-lJAG2xxgMc8Fnp8zXW-81" value="Order Number" style="ellipse;whiteSpace=wrap;html=1;align=center;" vertex="1" parent="d-lJAG2xxgMc8Fnp8zXW-69">
          <mxGeometry x="555.2112676056338" width="102.8169014084507" height="40.6974358974359" as="geometry" />
        </mxCell>
        <mxCell id="d-lJAG2xxgMc8Fnp8zXW-82" value="Creation time" style="ellipse;whiteSpace=wrap;html=1;align=center;" vertex="1" parent="d-lJAG2xxgMc8Fnp8zXW-69">
          <mxGeometry x="627.1830985915493" y="50.871794871794876" width="102.8169014084507" height="40.6974358974359" as="geometry" />
        </mxCell>
        <mxCell id="d-lJAG2xxgMc8Fnp8zXW-83" value="Total aamounts" style="ellipse;whiteSpace=wrap;html=1;align=center;" vertex="1" parent="d-lJAG2xxgMc8Fnp8zXW-69">
          <mxGeometry x="606.6197183098591" y="111.91794871794873" width="102.8169014084507" height="40.6974358974359" as="geometry" />
        </mxCell>
        <mxCell id="d-lJAG2xxgMc8Fnp8zXW-84" value="" style="endArrow=none;html=1;rounded=0;entryX=0;entryY=0.5;entryDx=0;entryDy=0;exitX=0.75;exitY=1;exitDx=0;exitDy=0;" edge="1" parent="d-lJAG2xxgMc8Fnp8zXW-69" source="d-lJAG2xxgMc8Fnp8zXW-79" target="d-lJAG2xxgMc8Fnp8zXW-83">
          <mxGeometry relative="1" as="geometry">
            <mxPoint x="349.57746478873236" y="-142.44102564102567" as="sourcePoint" />
            <mxPoint x="514.0845070422534" y="-142.44102564102567" as="targetPoint" />
          </mxGeometry>
        </mxCell>
        <mxCell id="d-lJAG2xxgMc8Fnp8zXW-85" value="" style="endArrow=none;html=1;rounded=0;exitX=1;exitY=0.5;exitDx=0;exitDy=0;entryX=0;entryY=0.5;entryDx=0;entryDy=0;" edge="1" parent="d-lJAG2xxgMc8Fnp8zXW-69" source="d-lJAG2xxgMc8Fnp8zXW-79" target="d-lJAG2xxgMc8Fnp8zXW-82">
          <mxGeometry relative="1" as="geometry">
            <mxPoint x="349.57746478873236" y="-142.44102564102567" as="sourcePoint" />
            <mxPoint x="514.0845070422534" y="-142.44102564102567" as="targetPoint" />
          </mxGeometry>
        </mxCell>
        <mxCell id="d-lJAG2xxgMc8Fnp8zXW-86" value="" style="endArrow=none;html=1;rounded=0;entryX=1;entryY=0;entryDx=0;entryDy=0;exitX=0.5;exitY=1;exitDx=0;exitDy=0;" edge="1" parent="d-lJAG2xxgMc8Fnp8zXW-69" source="d-lJAG2xxgMc8Fnp8zXW-81" target="d-lJAG2xxgMc8Fnp8zXW-79">
          <mxGeometry relative="1" as="geometry">
            <mxPoint x="349.57746478873236" y="-142.44102564102567" as="sourcePoint" />
            <mxPoint x="514.0845070422534" y="-142.44102564102567" as="targetPoint" />
          </mxGeometry>
        </mxCell>
        <mxCell id="d-lJAG2xxgMc8Fnp8zXW-87" value="" style="endArrow=none;html=1;rounded=0;exitX=0.25;exitY=0;exitDx=0;exitDy=0;" edge="1" parent="d-lJAG2xxgMc8Fnp8zXW-69" source="d-lJAG2xxgMc8Fnp8zXW-79" target="d-lJAG2xxgMc8Fnp8zXW-80">
          <mxGeometry relative="1" as="geometry">
            <mxPoint x="349.57746478873236" y="-142.44102564102567" as="sourcePoint" />
            <mxPoint x="508.943661971831" y="50.871794871794876" as="targetPoint" />
          </mxGeometry>
        </mxCell>
        <mxCell id="d-lJAG2xxgMc8Fnp8zXW-88" value="Places" style="shape=rhombus;perimeter=rhombusPerimeter;whiteSpace=wrap;html=1;align=center;" vertex="1" parent="d-lJAG2xxgMc8Fnp8zXW-69">
          <mxGeometry x="318.7323943661972" y="50.871794871794876" width="123.38028169014083" height="61.04615384615386" as="geometry" />
        </mxCell>
        <mxCell id="d-lJAG2xxgMc8Fnp8zXW-89" value="" style="endArrow=none;html=1;rounded=0;entryX=1;entryY=0.5;entryDx=0;entryDy=0;exitX=0;exitY=0.5;exitDx=0;exitDy=0;" edge="1" parent="d-lJAG2xxgMc8Fnp8zXW-69" source="d-lJAG2xxgMc8Fnp8zXW-88" target="d-lJAG2xxgMc8Fnp8zXW-70">
          <mxGeometry relative="1" as="geometry">
            <mxPoint x="318.7323943661972" y="91.56923076923077" as="sourcePoint" />
            <mxPoint x="514.0845070422534" y="-142.44102564102567" as="targetPoint" />
          </mxGeometry>
        </mxCell>
        <mxCell id="d-lJAG2xxgMc8Fnp8zXW-90" value="1" style="resizable=0;html=1;whiteSpace=wrap;align=right;verticalAlign=bottom;" connectable="0" vertex="1" parent="d-lJAG2xxgMc8Fnp8zXW-89">
          <mxGeometry x="1" relative="1" as="geometry" />
        </mxCell>
        <mxCell id="d-lJAG2xxgMc8Fnp8zXW-91" value="" style="shape=link;html=1;rounded=0;exitX=1;exitY=0.5;exitDx=0;exitDy=0;entryX=0;entryY=0.5;entryDx=0;entryDy=0;" edge="1" parent="d-lJAG2xxgMc8Fnp8zXW-69" source="d-lJAG2xxgMc8Fnp8zXW-88" target="d-lJAG2xxgMc8Fnp8zXW-79">
          <mxGeometry relative="1" as="geometry">
            <mxPoint x="370.14084507042253" y="-30.52307692307693" as="sourcePoint" />
            <mxPoint x="534.6478873239437" y="-30.52307692307693" as="targetPoint" />
          </mxGeometry>
        </mxCell>
        <mxCell id="d-lJAG2xxgMc8Fnp8zXW-92" value="M" style="resizable=0;html=1;whiteSpace=wrap;align=right;verticalAlign=bottom;" connectable="0" vertex="1" parent="d-lJAG2xxgMc8Fnp8zXW-91">
          <mxGeometry x="1" relative="1" as="geometry" />
        </mxCell>
        <mxCell id="d-lJAG2xxgMc8Fnp8zXW-129" value="" style="shape=link;html=1;rounded=0;exitX=0;exitY=0;exitDx=0;exitDy=0;entryX=0.5;entryY=1;entryDx=0;entryDy=0;width=5;" edge="1" parent="d-lJAG2xxgMc8Fnp8zXW-69">
          <mxGeometry relative="1" as="geometry">
            <mxPoint x="292.89" y="252.76923076923094" as="sourcePoint" />
            <mxPoint x="167.11535211267585" y="101.74358974358984" as="targetPoint" />
            <Array as="points">
              <mxPoint x="172.89" y="248" />
            </Array>
          </mxGeometry>
        </mxCell>
        <mxCell id="d-lJAG2xxgMc8Fnp8zXW-130" value="1" style="resizable=0;html=1;whiteSpace=wrap;align=right;verticalAlign=bottom;" connectable="0" vertex="1" parent="d-lJAG2xxgMc8Fnp8zXW-129">
          <mxGeometry x="1" relative="1" as="geometry">
            <mxPoint x="13" y="18" as="offset" />
          </mxGeometry>
        </mxCell>
        <mxCell id="d-lJAG2xxgMc8Fnp8zXW-93" value="Orderitem" style="whiteSpace=wrap;html=1;align=center;fillColor=#CC6600;" vertex="1" parent="d-lJAG2xxgMc8Fnp8zXW-221">
          <mxGeometry x="590" y="324.3076923076924" width="100" height="38.15384615384616" as="geometry" />
        </mxCell>
        <mxCell id="d-lJAG2xxgMc8Fnp8zXW-94" value="OrderIteTrackingI" style="ellipse;whiteSpace=wrap;html=1;align=center;fontStyle=4;" vertex="1" parent="d-lJAG2xxgMc8Fnp8zXW-221">
          <mxGeometry x="670" y="381.53846153846166" width="110" height="47.69230769230771" as="geometry" />
        </mxCell>
        <mxCell id="d-lJAG2xxgMc8Fnp8zXW-96" value="Quantity" style="ellipse;whiteSpace=wrap;html=1;align=center;" vertex="1" parent="d-lJAG2xxgMc8Fnp8zXW-221">
          <mxGeometry x="580" y="419.6923076923078" width="100" height="38.15384615384616" as="geometry" />
        </mxCell>
        <mxCell id="d-lJAG2xxgMc8Fnp8zXW-97" value="Items" style="ellipse;whiteSpace=wrap;html=1;align=center;" vertex="1" parent="d-lJAG2xxgMc8Fnp8zXW-221">
          <mxGeometry x="490" y="372.00000000000006" width="100" height="38.15384615384616" as="geometry" />
        </mxCell>
        <mxCell id="d-lJAG2xxgMc8Fnp8zXW-98" value="" style="endArrow=none;html=1;rounded=0;exitX=0.75;exitY=1;exitDx=0;exitDy=0;" edge="1" parent="d-lJAG2xxgMc8Fnp8zXW-221" source="d-lJAG2xxgMc8Fnp8zXW-93" target="d-lJAG2xxgMc8Fnp8zXW-94">
          <mxGeometry relative="1" as="geometry">
            <mxPoint x="660" y="352.923076923077" as="sourcePoint" />
            <mxPoint x="520" y="209.8461538461539" as="targetPoint" />
          </mxGeometry>
        </mxCell>
        <mxCell id="d-lJAG2xxgMc8Fnp8zXW-99" value="" style="endArrow=none;html=1;rounded=0;exitX=0.5;exitY=0;exitDx=0;exitDy=0;entryX=0.25;entryY=1;entryDx=0;entryDy=0;" edge="1" parent="d-lJAG2xxgMc8Fnp8zXW-221" source="d-lJAG2xxgMc8Fnp8zXW-96" target="d-lJAG2xxgMc8Fnp8zXW-93">
          <mxGeometry relative="1" as="geometry">
            <mxPoint x="360" y="209.8461538461539" as="sourcePoint" />
            <mxPoint x="520" y="209.8461538461539" as="targetPoint" />
          </mxGeometry>
        </mxCell>
        <mxCell id="d-lJAG2xxgMc8Fnp8zXW-100" value="" style="endArrow=none;html=1;rounded=0;exitX=0.5;exitY=0;exitDx=0;exitDy=0;entryX=0;entryY=0.75;entryDx=0;entryDy=0;" edge="1" parent="d-lJAG2xxgMc8Fnp8zXW-221" source="d-lJAG2xxgMc8Fnp8zXW-97" target="d-lJAG2xxgMc8Fnp8zXW-93">
          <mxGeometry relative="1" as="geometry">
            <mxPoint x="360" y="209.8461538461539" as="sourcePoint" />
            <mxPoint x="520" y="209.8461538461539" as="targetPoint" />
          </mxGeometry>
        </mxCell>
        <mxCell id="d-lJAG2xxgMc8Fnp8zXW-101" value="Contains" style="shape=rhombus;perimeter=rhombusPerimeter;whiteSpace=wrap;html=1;align=center;" vertex="1" parent="d-lJAG2xxgMc8Fnp8zXW-221">
          <mxGeometry x="556.34" y="209.8461538461539" width="120" height="57.23076923076923" as="geometry" />
        </mxCell>
        <mxCell id="d-lJAG2xxgMc8Fnp8zXW-102" value="" style="shape=link;html=1;rounded=0;entryX=0.37;entryY=1.014;entryDx=0;entryDy=0;entryPerimeter=0;exitX=0.5;exitY=0;exitDx=0;exitDy=0;" edge="1" parent="d-lJAG2xxgMc8Fnp8zXW-221" source="d-lJAG2xxgMc8Fnp8zXW-101" target="d-lJAG2xxgMc8Fnp8zXW-79">
          <mxGeometry relative="1" as="geometry">
            <mxPoint x="370" y="362.4615384615385" as="sourcePoint" />
            <mxPoint x="520" y="295.69230769230774" as="targetPoint" />
          </mxGeometry>
        </mxCell>
        <mxCell id="d-lJAG2xxgMc8Fnp8zXW-103" value="1" style="resizable=0;html=1;whiteSpace=wrap;align=right;verticalAlign=bottom;" connectable="0" vertex="1" parent="d-lJAG2xxgMc8Fnp8zXW-102">
          <mxGeometry x="1" relative="1" as="geometry">
            <mxPoint x="-7" y="19" as="offset" />
          </mxGeometry>
        </mxCell>
        <mxCell id="d-lJAG2xxgMc8Fnp8zXW-104" value="" style="shape=link;html=1;rounded=0;exitX=0.5;exitY=1;exitDx=0;exitDy=0;entryX=0.25;entryY=0;entryDx=0;entryDy=0;" edge="1" parent="d-lJAG2xxgMc8Fnp8zXW-221" source="d-lJAG2xxgMc8Fnp8zXW-101" target="d-lJAG2xxgMc8Fnp8zXW-93">
          <mxGeometry relative="1" as="geometry">
            <mxPoint x="360" y="295.69230769230774" as="sourcePoint" />
            <mxPoint x="520" y="295.69230769230774" as="targetPoint" />
          </mxGeometry>
        </mxCell>
        <mxCell id="d-lJAG2xxgMc8Fnp8zXW-105" value="M" style="resizable=0;html=1;whiteSpace=wrap;align=right;verticalAlign=bottom;" connectable="0" vertex="1" parent="d-lJAG2xxgMc8Fnp8zXW-104">
          <mxGeometry x="1" relative="1" as="geometry" />
        </mxCell>
        <mxCell id="d-lJAG2xxgMc8Fnp8zXW-107" value="Includes" style="shape=rhombus;perimeter=rhombusPerimeter;whiteSpace=wrap;html=1;align=center;" vertex="1" parent="d-lJAG2xxgMc8Fnp8zXW-221">
          <mxGeometry x="810" y="200.30769230769235" width="120" height="57.23076923076923" as="geometry" />
        </mxCell>
        <mxCell id="d-lJAG2xxgMc8Fnp8zXW-110" value="" style="shape=link;html=1;rounded=0;entryX=1;entryY=0.5;entryDx=0;entryDy=0;exitX=0;exitY=1;exitDx=0;exitDy=0;" edge="1" parent="d-lJAG2xxgMc8Fnp8zXW-221" source="d-lJAG2xxgMc8Fnp8zXW-107" target="d-lJAG2xxgMc8Fnp8zXW-93">
          <mxGeometry relative="1" as="geometry">
            <mxPoint x="920" y="143.07692307692312" as="sourcePoint" />
            <mxPoint x="690" y="152.61538461538464" as="targetPoint" />
            <Array as="points">
              <mxPoint x="840" y="352.923076923077" />
            </Array>
          </mxGeometry>
        </mxCell>
        <mxCell id="d-lJAG2xxgMc8Fnp8zXW-111" value="M" style="resizable=0;html=1;whiteSpace=wrap;align=right;verticalAlign=bottom;" connectable="0" vertex="1" parent="d-lJAG2xxgMc8Fnp8zXW-110">
          <mxGeometry x="1" relative="1" as="geometry">
            <mxPoint x="20" y="10" as="offset" />
          </mxGeometry>
        </mxCell>
        <mxCell id="d-lJAG2xxgMc8Fnp8zXW-114" value="ShoppingCart" style="whiteSpace=wrap;html=1;align=center;fillColor=#007FFF;" vertex="1" parent="d-lJAG2xxgMc8Fnp8zXW-221">
          <mxGeometry x="180" y="343.3846153846155" width="100" height="38.15384615384616" as="geometry" />
        </mxCell>
        <mxCell id="d-lJAG2xxgMc8Fnp8zXW-115" value="CartID   " style="ellipse;whiteSpace=wrap;html=1;align=center;fontStyle=4;" vertex="1" parent="d-lJAG2xxgMc8Fnp8zXW-221">
          <mxGeometry x="90" y="276.61538461538464" width="100" height="38.15384615384616" as="geometry" />
        </mxCell>
        <mxCell id="d-lJAG2xxgMc8Fnp8zXW-117" value="LastUpdated" style="ellipse;whiteSpace=wrap;html=1;align=center;" vertex="1" parent="d-lJAG2xxgMc8Fnp8zXW-221">
          <mxGeometry x="100" y="410.15384615384625" width="100" height="38.15384615384616" as="geometry" />
        </mxCell>
        <mxCell id="d-lJAG2xxgMc8Fnp8zXW-118" value="CreationTimestamp" style="ellipse;whiteSpace=wrap;html=1;align=center;" vertex="1" parent="d-lJAG2xxgMc8Fnp8zXW-221">
          <mxGeometry y="352.923076923077" width="130" height="38.15384615384616" as="geometry" />
        </mxCell>
        <mxCell id="d-lJAG2xxgMc8Fnp8zXW-123" value="" style="endArrow=none;html=1;rounded=0;exitX=1;exitY=0;exitDx=0;exitDy=0;entryX=0.75;entryY=1;entryDx=0;entryDy=0;" edge="1" parent="d-lJAG2xxgMc8Fnp8zXW-221" source="d-lJAG2xxgMc8Fnp8zXW-117" target="d-lJAG2xxgMc8Fnp8zXW-114">
          <mxGeometry relative="1" as="geometry">
            <mxPoint x="360" y="209.8461538461539" as="sourcePoint" />
            <mxPoint x="230" y="381.53846153846166" as="targetPoint" />
          </mxGeometry>
        </mxCell>
        <mxCell id="d-lJAG2xxgMc8Fnp8zXW-124" value="" style="endArrow=none;html=1;rounded=0;exitX=1;exitY=0.5;exitDx=0;exitDy=0;entryX=0;entryY=0.75;entryDx=0;entryDy=0;" edge="1" parent="d-lJAG2xxgMc8Fnp8zXW-221" source="d-lJAG2xxgMc8Fnp8zXW-118" target="d-lJAG2xxgMc8Fnp8zXW-114">
          <mxGeometry relative="1" as="geometry">
            <mxPoint x="360" y="209.8461538461539" as="sourcePoint" />
            <mxPoint x="520" y="209.8461538461539" as="targetPoint" />
          </mxGeometry>
        </mxCell>
        <mxCell id="d-lJAG2xxgMc8Fnp8zXW-125" value="" style="endArrow=none;html=1;rounded=0;exitX=1;exitY=0.5;exitDx=0;exitDy=0;entryX=0.5;entryY=0;entryDx=0;entryDy=0;" edge="1" parent="d-lJAG2xxgMc8Fnp8zXW-221" source="d-lJAG2xxgMc8Fnp8zXW-115" target="d-lJAG2xxgMc8Fnp8zXW-114">
          <mxGeometry relative="1" as="geometry">
            <mxPoint x="360" y="209.8461538461539" as="sourcePoint" />
            <mxPoint x="520" y="209.8461538461539" as="targetPoint" />
          </mxGeometry>
        </mxCell>
        <mxCell id="d-lJAG2xxgMc8Fnp8zXW-126" value="Owns" style="shape=rhombus;perimeter=rhombusPerimeter;whiteSpace=wrap;html=1;align=center;" vertex="1" parent="d-lJAG2xxgMc8Fnp8zXW-221">
          <mxGeometry x="330" y="238.46153846153848" width="120" height="57.23076923076923" as="geometry" />
        </mxCell>
        <mxCell id="d-lJAG2xxgMc8Fnp8zXW-127" value="" style="shape=link;html=1;rounded=0;exitX=0;exitY=1;exitDx=0;exitDy=0;entryX=1;entryY=0.5;entryDx=0;entryDy=0;" edge="1" parent="d-lJAG2xxgMc8Fnp8zXW-221" source="d-lJAG2xxgMc8Fnp8zXW-126" target="d-lJAG2xxgMc8Fnp8zXW-114">
          <mxGeometry relative="1" as="geometry">
            <mxPoint x="300" y="295.69230769230774" as="sourcePoint" />
            <mxPoint x="460" y="295.69230769230774" as="targetPoint" />
            <Array as="points">
              <mxPoint x="360" y="362.4615384615385" />
            </Array>
          </mxGeometry>
        </mxCell>
        <mxCell id="d-lJAG2xxgMc8Fnp8zXW-128" value="1" style="resizable=0;html=1;whiteSpace=wrap;align=right;verticalAlign=bottom;" connectable="0" vertex="1" parent="d-lJAG2xxgMc8Fnp8zXW-127">
          <mxGeometry x="1" relative="1" as="geometry">
            <mxPoint x="9" y="-10" as="offset" />
          </mxGeometry>
        </mxCell>
        <mxCell id="d-lJAG2xxgMc8Fnp8zXW-133" value="Cart item" style="whiteSpace=wrap;html=1;align=center;fillColor=#99FF99;" vertex="1" parent="d-lJAG2xxgMc8Fnp8zXW-221">
          <mxGeometry x="360" y="515.0769230769232" width="100" height="38.15384615384616" as="geometry" />
        </mxCell>
        <mxCell id="d-lJAG2xxgMc8Fnp8zXW-195" value="CartItemID" style="ellipse;whiteSpace=wrap;html=1;align=center;fontStyle=4;" vertex="1" parent="d-lJAG2xxgMc8Fnp8zXW-221">
          <mxGeometry x="460" y="581.846153846154" width="100" height="38.15384615384616" as="geometry" />
        </mxCell>
        <mxCell id="d-lJAG2xxgMc8Fnp8zXW-196" value="Quantity" style="ellipse;whiteSpace=wrap;html=1;align=center;" vertex="1" parent="d-lJAG2xxgMc8Fnp8zXW-221">
          <mxGeometry x="355" y="562.769230769231" width="100" height="38.15384615384616" as="geometry" />
        </mxCell>
        <mxCell id="d-lJAG2xxgMc8Fnp8zXW-197" value="AddedTimestamp" style="ellipse;whiteSpace=wrap;html=1;align=center;" vertex="1" parent="d-lJAG2xxgMc8Fnp8zXW-221">
          <mxGeometry x="225" y="553.2307692307693" width="130" height="38.15384615384616" as="geometry" />
        </mxCell>
        <mxCell id="d-lJAG2xxgMc8Fnp8zXW-199" value="" style="endArrow=none;html=1;rounded=0;exitX=0.75;exitY=1;exitDx=0;exitDy=0;entryX=0;entryY=0;entryDx=0;entryDy=0;" edge="1" parent="d-lJAG2xxgMc8Fnp8zXW-221" source="d-lJAG2xxgMc8Fnp8zXW-133" target="d-lJAG2xxgMc8Fnp8zXW-195">
          <mxGeometry relative="1" as="geometry">
            <mxPoint x="410" y="400.6153846153847" as="sourcePoint" />
            <mxPoint x="485" y="557.046153846154" as="targetPoint" />
          </mxGeometry>
        </mxCell>
        <mxCell id="d-lJAG2xxgMc8Fnp8zXW-200" value="" style="endArrow=none;html=1;rounded=0;exitX=0.5;exitY=1;exitDx=0;exitDy=0;entryX=0.6;entryY=0;entryDx=0;entryDy=0;entryPerimeter=0;" edge="1" parent="d-lJAG2xxgMc8Fnp8zXW-221" source="d-lJAG2xxgMc8Fnp8zXW-133" target="d-lJAG2xxgMc8Fnp8zXW-196">
          <mxGeometry relative="1" as="geometry">
            <mxPoint x="420" y="400.6153846153847" as="sourcePoint" />
            <mxPoint x="570" y="400.6153846153847" as="targetPoint" />
          </mxGeometry>
        </mxCell>
        <mxCell id="d-lJAG2xxgMc8Fnp8zXW-201" value="" style="endArrow=none;html=1;rounded=0;exitX=0;exitY=0.5;exitDx=0;exitDy=0;entryX=0.5;entryY=0;entryDx=0;entryDy=0;" edge="1" parent="d-lJAG2xxgMc8Fnp8zXW-221" source="d-lJAG2xxgMc8Fnp8zXW-133" target="d-lJAG2xxgMc8Fnp8zXW-197">
          <mxGeometry relative="1" as="geometry">
            <mxPoint x="410" y="400.6153846153847" as="sourcePoint" />
            <mxPoint x="570" y="400.6153846153847" as="targetPoint" />
          </mxGeometry>
        </mxCell>
        <mxCell id="d-lJAG2xxgMc8Fnp8zXW-202" value="Has" style="shape=rhombus;perimeter=rhombusPerimeter;whiteSpace=wrap;html=1;align=center;" vertex="1" parent="d-lJAG2xxgMc8Fnp8zXW-221">
          <mxGeometry x="220" y="457.84615384615387" width="70" height="38.15384615384616" as="geometry" />
        </mxCell>
        <mxCell id="d-lJAG2xxgMc8Fnp8zXW-203" value="" style="endArrow=none;html=1;rounded=0;exitX=0.5;exitY=0;exitDx=0;exitDy=0;entryX=0.75;entryY=1;entryDx=0;entryDy=0;" edge="1" parent="d-lJAG2xxgMc8Fnp8zXW-221" source="d-lJAG2xxgMc8Fnp8zXW-202" target="d-lJAG2xxgMc8Fnp8zXW-114">
          <mxGeometry relative="1" as="geometry">
            <mxPoint x="410" y="352.923076923077" as="sourcePoint" />
            <mxPoint x="570" y="352.923076923077" as="targetPoint" />
          </mxGeometry>
        </mxCell>
        <mxCell id="d-lJAG2xxgMc8Fnp8zXW-204" value="1" style="resizable=0;html=1;whiteSpace=wrap;align=right;verticalAlign=bottom;" connectable="0" vertex="1" parent="d-lJAG2xxgMc8Fnp8zXW-203">
          <mxGeometry x="1" relative="1" as="geometry">
            <mxPoint x="15" y="20" as="offset" />
          </mxGeometry>
        </mxCell>
        <mxCell id="d-lJAG2xxgMc8Fnp8zXW-205" value="" style="shape=link;html=1;rounded=0;exitX=0.5;exitY=1;exitDx=0;exitDy=0;entryX=0;entryY=0.25;entryDx=0;entryDy=0;" edge="1" parent="d-lJAG2xxgMc8Fnp8zXW-221" source="d-lJAG2xxgMc8Fnp8zXW-202" target="d-lJAG2xxgMc8Fnp8zXW-133">
          <mxGeometry relative="1" as="geometry">
            <mxPoint x="290" y="429.2307692307693" as="sourcePoint" />
            <mxPoint x="450" y="429.2307692307693" as="targetPoint" />
            <Array as="points">
              <mxPoint x="255" y="524.6153846153848" />
            </Array>
          </mxGeometry>
        </mxCell>
        <mxCell id="d-lJAG2xxgMc8Fnp8zXW-206" value="M" style="resizable=0;html=1;whiteSpace=wrap;align=right;verticalAlign=bottom;" connectable="0" vertex="1" parent="d-lJAG2xxgMc8Fnp8zXW-205">
          <mxGeometry x="1" relative="1" as="geometry" />
        </mxCell>
        <mxCell id="d-lJAG2xxgMc8Fnp8zXW-207" value="Refers to" style="shape=rhombus;perimeter=rhombusPerimeter;whiteSpace=wrap;html=1;align=center;" vertex="1" parent="d-lJAG2xxgMc8Fnp8zXW-221">
          <mxGeometry x="880" y="515.0769230769232" width="120" height="57.23076923076923" as="geometry" />
        </mxCell>
        <mxCell id="d-lJAG2xxgMc8Fnp8zXW-211" value="" style="shape=link;html=1;rounded=0;exitX=0;exitY=0.5;exitDx=0;exitDy=0;entryX=1;entryY=0.75;entryDx=0;entryDy=0;" edge="1" parent="d-lJAG2xxgMc8Fnp8zXW-221" source="d-lJAG2xxgMc8Fnp8zXW-207" target="d-lJAG2xxgMc8Fnp8zXW-133">
          <mxGeometry relative="1" as="geometry">
            <mxPoint x="780" y="305.2307692307693" as="sourcePoint" />
            <mxPoint x="940" y="305.2307692307693" as="targetPoint" />
          </mxGeometry>
        </mxCell>
        <mxCell id="d-lJAG2xxgMc8Fnp8zXW-212" value="M" style="resizable=0;html=1;whiteSpace=wrap;align=right;verticalAlign=bottom;" connectable="0" vertex="1" parent="d-lJAG2xxgMc8Fnp8zXW-211">
          <mxGeometry x="1" relative="1" as="geometry">
            <mxPoint x="20" as="offset" />
          </mxGeometry>
        </mxCell>
        <mxCell id="d-lJAG2xxgMc8Fnp8zXW-245" value="City" style="ellipse;whiteSpace=wrap;html=1;align=center;" vertex="1" parent="d-lJAG2xxgMc8Fnp8zXW-221">
          <mxGeometry x="-30" y="-28.181818181818183" width="100" height="37.57575757575758" as="geometry" />
        </mxCell>
        <mxCell id="d-lJAG2xxgMc8Fnp8zXW-222" value="Payment" style="whiteSpace=wrap;html=1;align=center;fillColor=#B266FF;" vertex="1" parent="1">
          <mxGeometry x="644.71" y="370" width="100" height="40" as="geometry" />
        </mxCell>
        <mxCell id="d-lJAG2xxgMc8Fnp8zXW-223" value="Attribute" style="ellipse;whiteSpace=wrap;html=1;align=center;fontStyle=4;" vertex="1" parent="1">
          <mxGeometry x="770" y="430" width="100" height="40" as="geometry" />
        </mxCell>
        <mxCell id="d-lJAG2xxgMc8Fnp8zXW-224" value="Attribute" style="ellipse;whiteSpace=wrap;html=1;align=center;" vertex="1" parent="1">
          <mxGeometry x="760" y="310" width="100" height="40" as="geometry" />
        </mxCell>
        <mxCell id="d-lJAG2xxgMc8Fnp8zXW-225" value="Attribute" style="ellipse;whiteSpace=wrap;html=1;align=center;" vertex="1" parent="1">
          <mxGeometry x="790" y="370" width="100" height="40" as="geometry" />
        </mxCell>
        <mxCell id="d-lJAG2xxgMc8Fnp8zXW-227" value="" style="endArrow=none;html=1;rounded=0;exitX=0.75;exitY=1;exitDx=0;exitDy=0;entryX=0.5;entryY=0;entryDx=0;entryDy=0;" edge="1" parent="1" source="d-lJAG2xxgMc8Fnp8zXW-222" target="d-lJAG2xxgMc8Fnp8zXW-223">
          <mxGeometry relative="1" as="geometry">
            <mxPoint x="670" y="370" as="sourcePoint" />
            <mxPoint x="855" y="464" as="targetPoint" />
          </mxGeometry>
        </mxCell>
        <mxCell id="d-lJAG2xxgMc8Fnp8zXW-229" value="" style="endArrow=none;html=1;rounded=0;exitX=1;exitY=0.5;exitDx=0;exitDy=0;entryX=0;entryY=1;entryDx=0;entryDy=0;" edge="1" parent="1" source="d-lJAG2xxgMc8Fnp8zXW-222" target="d-lJAG2xxgMc8Fnp8zXW-224">
          <mxGeometry relative="1" as="geometry">
            <mxPoint x="460" y="510" as="sourcePoint" />
            <mxPoint x="620" y="510" as="targetPoint" />
          </mxGeometry>
        </mxCell>
        <mxCell id="d-lJAG2xxgMc8Fnp8zXW-230" value="" style="endArrow=none;html=1;rounded=0;exitX=1;exitY=0.75;exitDx=0;exitDy=0;entryX=0;entryY=0.5;entryDx=0;entryDy=0;" edge="1" parent="1" source="d-lJAG2xxgMc8Fnp8zXW-222" target="d-lJAG2xxgMc8Fnp8zXW-225">
          <mxGeometry relative="1" as="geometry">
            <mxPoint x="460" y="510" as="sourcePoint" />
            <mxPoint x="620" y="510" as="targetPoint" />
          </mxGeometry>
        </mxCell>
        <mxCell id="d-lJAG2xxgMc8Fnp8zXW-232" value="Review" style="whiteSpace=wrap;html=1;align=center;fillColor=#FF9999;" vertex="1" parent="1">
          <mxGeometry x="300" y="420" width="100" height="40" as="geometry" />
        </mxCell>
        <mxCell id="d-lJAG2xxgMc8Fnp8zXW-234" value="ReviewText" style="ellipse;whiteSpace=wrap;html=1;align=center;" vertex="1" parent="1">
          <mxGeometry x="470" y="490" width="100" height="40" as="geometry" />
        </mxCell>
        <mxCell id="d-lJAG2xxgMc8Fnp8zXW-235" value="Rating" style="ellipse;whiteSpace=wrap;html=1;align=center;" vertex="1" parent="1">
          <mxGeometry x="380" y="510" width="100" height="40" as="geometry" />
        </mxCell>
        <mxCell id="d-lJAG2xxgMc8Fnp8zXW-236" value="ReviewID" style="ellipse;whiteSpace=wrap;html=1;align=center;fontStyle=4;" vertex="1" parent="1">
          <mxGeometry x="480" y="410" width="100" height="40" as="geometry" />
        </mxCell>
        <mxCell id="d-lJAG2xxgMc8Fnp8zXW-237" value="" style="endArrow=none;html=1;rounded=0;exitX=1;exitY=1;exitDx=0;exitDy=0;entryX=0.5;entryY=0;entryDx=0;entryDy=0;" edge="1" parent="1" source="d-lJAG2xxgMc8Fnp8zXW-232" target="d-lJAG2xxgMc8Fnp8zXW-234">
          <mxGeometry relative="1" as="geometry">
            <mxPoint x="340" y="610" as="sourcePoint" />
            <mxPoint x="500" y="610" as="targetPoint" />
          </mxGeometry>
        </mxCell>
        <mxCell id="d-lJAG2xxgMc8Fnp8zXW-238" value="" style="endArrow=none;html=1;rounded=0;exitX=0;exitY=0.5;exitDx=0;exitDy=0;entryX=1;entryY=0.5;entryDx=0;entryDy=0;" edge="1" parent="1" source="d-lJAG2xxgMc8Fnp8zXW-236" target="d-lJAG2xxgMc8Fnp8zXW-232">
          <mxGeometry relative="1" as="geometry">
            <mxPoint x="340" y="610" as="sourcePoint" />
            <mxPoint x="500" y="610" as="targetPoint" />
          </mxGeometry>
        </mxCell>
        <mxCell id="d-lJAG2xxgMc8Fnp8zXW-239" value="" style="endArrow=none;html=1;rounded=0;exitX=0.5;exitY=0;exitDx=0;exitDy=0;entryX=0.5;entryY=1;entryDx=0;entryDy=0;" edge="1" parent="1" source="d-lJAG2xxgMc8Fnp8zXW-235" target="d-lJAG2xxgMc8Fnp8zXW-232">
          <mxGeometry relative="1" as="geometry">
            <mxPoint x="340" y="610" as="sourcePoint" />
            <mxPoint x="500" y="610" as="targetPoint" />
          </mxGeometry>
        </mxCell>
        <mxCell id="d-lJAG2xxgMc8Fnp8zXW-240" value="Address" style="whiteSpace=wrap;html=1;align=center;strokeColor=#E6FFCC;fillColor=#33FF33;" vertex="1" parent="1">
          <mxGeometry x="100" y="430" width="100" height="40" as="geometry" />
        </mxCell>
        <mxCell id="d-lJAG2xxgMc8Fnp8zXW-241" value="AddressID" style="ellipse;whiteSpace=wrap;html=1;align=center;fontStyle=4;" vertex="1" parent="1">
          <mxGeometry x="-120" y="490" width="100" height="40" as="geometry" />
        </mxCell>
        <mxCell id="d-lJAG2xxgMc8Fnp8zXW-243" value="IsShippingAddress" style="ellipse;whiteSpace=wrap;html=1;align=center;" vertex="1" parent="1">
          <mxGeometry y="299.61" width="100" height="40" as="geometry" />
        </mxCell>
        <mxCell id="d-lJAG2xxgMc8Fnp8zXW-244" value="State" style="ellipse;whiteSpace=wrap;html=1;align=center;" vertex="1" parent="1">
          <mxGeometry x="-90" y="410" width="100" height="40" as="geometry" />
        </mxCell>
        <mxCell id="d-lJAG2xxgMc8Fnp8zXW-253" value="IsBillingAddress" style="ellipse;whiteSpace=wrap;html=1;align=center;" vertex="1" parent="1">
          <mxGeometry x="-105" y="550" width="130" height="40" as="geometry" />
        </mxCell>
        <mxCell id="d-lJAG2xxgMc8Fnp8zXW-254" value="Country&lt;div&gt;&lt;br/&gt;&lt;/div&gt;" style="ellipse;whiteSpace=wrap;html=1;align=center;" vertex="1" parent="1">
          <mxGeometry x="-105" y="290" width="100" height="40" as="geometry" />
        </mxCell>
        <mxCell id="d-lJAG2xxgMc8Fnp8zXW-255" value="zip" style="ellipse;whiteSpace=wrap;html=1;align=center;" vertex="1" parent="1">
          <mxGeometry x="-105" y="360" width="100" height="40" as="geometry" />
        </mxCell>
        <mxCell id="d-lJAG2xxgMc8Fnp8zXW-259" value="" style="endArrow=none;html=1;rounded=0;exitX=0.727;exitY=1.017;exitDx=0;exitDy=0;exitPerimeter=0;entryX=0.5;entryY=0;entryDx=0;entryDy=0;" edge="1" parent="1" source="d-lJAG2xxgMc8Fnp8zXW-243" target="d-lJAG2xxgMc8Fnp8zXW-240">
          <mxGeometry relative="1" as="geometry">
            <mxPoint x="80" y="550" as="sourcePoint" />
            <mxPoint x="120" y="440" as="targetPoint" />
          </mxGeometry>
        </mxCell>
        <mxCell id="d-lJAG2xxgMc8Fnp8zXW-260" value="" style="endArrow=none;html=1;rounded=0;exitX=0.68;exitY=0.95;exitDx=0;exitDy=0;exitPerimeter=0;entryX=0.25;entryY=0;entryDx=0;entryDy=0;" edge="1" parent="1" source="d-lJAG2xxgMc8Fnp8zXW-254" target="d-lJAG2xxgMc8Fnp8zXW-240">
          <mxGeometry relative="1" as="geometry">
            <mxPoint x="80" y="550" as="sourcePoint" />
            <mxPoint x="240" y="550" as="targetPoint" />
          </mxGeometry>
        </mxCell>
        <mxCell id="d-lJAG2xxgMc8Fnp8zXW-261" value="" style="endArrow=none;html=1;rounded=0;exitX=1;exitY=0.5;exitDx=0;exitDy=0;entryX=0;entryY=0;entryDx=0;entryDy=0;" edge="1" parent="1" source="d-lJAG2xxgMc8Fnp8zXW-255" target="d-lJAG2xxgMc8Fnp8zXW-240">
          <mxGeometry relative="1" as="geometry">
            <mxPoint x="80" y="550" as="sourcePoint" />
            <mxPoint x="240" y="550" as="targetPoint" />
          </mxGeometry>
        </mxCell>
        <mxCell id="d-lJAG2xxgMc8Fnp8zXW-262" value="" style="endArrow=none;html=1;rounded=0;exitX=1;exitY=0.5;exitDx=0;exitDy=0;" edge="1" parent="1" source="d-lJAG2xxgMc8Fnp8zXW-241">
          <mxGeometry relative="1" as="geometry">
            <mxPoint x="80" y="550" as="sourcePoint" />
            <mxPoint x="100" y="440" as="targetPoint" />
          </mxGeometry>
        </mxCell>
        <mxCell id="d-lJAG2xxgMc8Fnp8zXW-263" value="" style="endArrow=none;html=1;rounded=0;exitX=1;exitY=0.5;exitDx=0;exitDy=0;entryX=0;entryY=0.25;entryDx=0;entryDy=0;" edge="1" parent="1" source="d-lJAG2xxgMc8Fnp8zXW-244" target="d-lJAG2xxgMc8Fnp8zXW-240">
          <mxGeometry relative="1" as="geometry">
            <mxPoint x="80" y="550" as="sourcePoint" />
            <mxPoint x="240" y="550" as="targetPoint" />
          </mxGeometry>
        </mxCell>
        <mxCell id="d-lJAG2xxgMc8Fnp8zXW-264" value="" style="endArrow=none;html=1;rounded=0;exitX=0;exitY=0.5;exitDx=0;exitDy=0;entryX=0.72;entryY=-0.067;entryDx=0;entryDy=0;entryPerimeter=0;" edge="1" parent="1" source="d-lJAG2xxgMc8Fnp8zXW-240" target="d-lJAG2xxgMc8Fnp8zXW-253">
          <mxGeometry relative="1" as="geometry">
            <mxPoint x="90" y="550" as="sourcePoint" />
            <mxPoint x="240" y="550" as="targetPoint" />
          </mxGeometry>
        </mxCell>
        <mxCell id="d-lJAG2xxgMc8Fnp8zXW-265" value="" style="endArrow=none;html=1;rounded=0;exitX=0;exitY=1;exitDx=0;exitDy=0;entryX=0.5;entryY=0;entryDx=0;entryDy=0;" edge="1" parent="1" source="d-lJAG2xxgMc8Fnp8zXW-240" target="d-lJAG2xxgMc8Fnp8zXW-245">
          <mxGeometry relative="1" as="geometry">
            <mxPoint x="80" y="550" as="sourcePoint" />
            <mxPoint x="240" y="550" as="targetPoint" />
          </mxGeometry>
        </mxCell>
        <mxCell id="d-lJAG2xxgMc8Fnp8zXW-268" value="Inventory" style="whiteSpace=wrap;html=1;align=center;fillColor=#67AB9F;" vertex="1" parent="1">
          <mxGeometry x="550" y="20" width="100" height="40" as="geometry" />
        </mxCell>
        <mxCell id="d-lJAG2xxgMc8Fnp8zXW-274" value="InventoryID " style="ellipse;whiteSpace=wrap;html=1;align=center;fontStyle=4;" vertex="1" parent="1">
          <mxGeometry x="670" y="40" width="100" height="40" as="geometry" />
        </mxCell>
        <mxCell id="d-lJAG2xxgMc8Fnp8zXW-275" value="UnitCost&lt;div&gt;&lt;br/&gt;&lt;/div&gt;" style="ellipse;whiteSpace=wrap;html=1;align=center;" vertex="1" parent="1">
          <mxGeometry x="670" y="-20" width="100" height="40" as="geometry" />
        </mxCell>
        <mxCell id="d-lJAG2xxgMc8Fnp8zXW-276" value="ReorderThreshold" style="ellipse;whiteSpace=wrap;html=1;align=center;" vertex="1" parent="1">
          <mxGeometry x="520" y="-40" width="120" height="40" as="geometry" />
        </mxCell>
        <mxCell id="d-lJAG2xxgMc8Fnp8zXW-277" value="LastStockUpdate" style="ellipse;whiteSpace=wrap;html=1;align=center;" vertex="1" parent="1">
          <mxGeometry x="400" y="10" width="125" height="40" as="geometry" />
        </mxCell>
        <mxCell id="d-lJAG2xxgMc8Fnp8zXW-278" value="QuantityInStock" style="ellipse;whiteSpace=wrap;html=1;align=center;" vertex="1" parent="1">
          <mxGeometry x="440" y="80" width="100" height="40" as="geometry" />
        </mxCell>
        <mxCell id="d-lJAG2xxgMc8Fnp8zXW-280" value="" style="endArrow=none;html=1;rounded=0;entryX=0;entryY=0.5;entryDx=0;entryDy=0;exitX=1;exitY=0.5;exitDx=0;exitDy=0;" edge="1" parent="1" source="d-lJAG2xxgMc8Fnp8zXW-268" target="d-lJAG2xxgMc8Fnp8zXW-275">
          <mxGeometry relative="1" as="geometry">
            <mxPoint x="430" y="10" as="sourcePoint" />
            <mxPoint x="590" y="10" as="targetPoint" />
          </mxGeometry>
        </mxCell>
        <mxCell id="d-lJAG2xxgMc8Fnp8zXW-281" value="" style="endArrow=none;html=1;rounded=0;exitX=0;exitY=0.5;exitDx=0;exitDy=0;entryX=1;entryY=1;entryDx=0;entryDy=0;" edge="1" parent="1" source="d-lJAG2xxgMc8Fnp8zXW-274" target="d-lJAG2xxgMc8Fnp8zXW-268">
          <mxGeometry relative="1" as="geometry">
            <mxPoint x="430" y="10" as="sourcePoint" />
            <mxPoint x="590" y="10" as="targetPoint" />
          </mxGeometry>
        </mxCell>
        <mxCell id="d-lJAG2xxgMc8Fnp8zXW-282" value="" style="endArrow=none;html=1;rounded=0;exitX=1;exitY=1;exitDx=0;exitDy=0;entryX=0.75;entryY=0;entryDx=0;entryDy=0;" edge="1" parent="1" source="d-lJAG2xxgMc8Fnp8zXW-276" target="d-lJAG2xxgMc8Fnp8zXW-268">
          <mxGeometry relative="1" as="geometry">
            <mxPoint x="430" y="10" as="sourcePoint" />
            <mxPoint x="590" y="10" as="targetPoint" />
          </mxGeometry>
        </mxCell>
        <mxCell id="d-lJAG2xxgMc8Fnp8zXW-283" value="" style="endArrow=none;html=1;rounded=0;exitX=1;exitY=0.5;exitDx=0;exitDy=0;entryX=0;entryY=0.25;entryDx=0;entryDy=0;" edge="1" parent="1" source="d-lJAG2xxgMc8Fnp8zXW-277" target="d-lJAG2xxgMc8Fnp8zXW-268">
          <mxGeometry relative="1" as="geometry">
            <mxPoint x="430" y="10" as="sourcePoint" />
            <mxPoint x="590" y="10" as="targetPoint" />
          </mxGeometry>
        </mxCell>
        <mxCell id="d-lJAG2xxgMc8Fnp8zXW-284" value="" style="endArrow=none;html=1;rounded=0;exitX=0.5;exitY=0;exitDx=0;exitDy=0;entryX=0;entryY=0.5;entryDx=0;entryDy=0;" edge="1" parent="1" source="d-lJAG2xxgMc8Fnp8zXW-278" target="d-lJAG2xxgMc8Fnp8zXW-268">
          <mxGeometry relative="1" as="geometry">
            <mxPoint x="430" y="10" as="sourcePoint" />
            <mxPoint x="590" y="10" as="targetPoint" />
          </mxGeometry>
        </mxCell>
        <mxCell id="d-lJAG2xxgMc8Fnp8zXW-286" value="has" style="shape=rhombus;perimeter=rhombusPerimeter;whiteSpace=wrap;html=1;align=center;" vertex="1" parent="1">
          <mxGeometry x="555.3" y="110" width="89.41" height="40" as="geometry" />
        </mxCell>
        <mxCell id="d-lJAG2xxgMc8Fnp8zXW-287" value="" style="shape=link;html=1;rounded=0;exitX=0.5;exitY=1;exitDx=0;exitDy=0;entryX=0.25;entryY=0;entryDx=0;entryDy=0;" edge="1" parent="1" source="d-lJAG2xxgMc8Fnp8zXW-286" target="d-lJAG2xxgMc8Fnp8zXW-173">
          <mxGeometry relative="1" as="geometry">
            <mxPoint x="430" y="10" as="sourcePoint" />
            <mxPoint x="590" y="10" as="targetPoint" />
            <Array as="points">
              <mxPoint x="655" y="150" />
            </Array>
          </mxGeometry>
        </mxCell>
        <mxCell id="d-lJAG2xxgMc8Fnp8zXW-288" value="1" style="resizable=0;html=1;whiteSpace=wrap;align=right;verticalAlign=bottom;" connectable="0" vertex="1" parent="d-lJAG2xxgMc8Fnp8zXW-287">
          <mxGeometry x="1" relative="1" as="geometry" />
        </mxCell>
        <mxCell id="d-lJAG2xxgMc8Fnp8zXW-289" value="" style="shape=link;html=1;rounded=0;exitX=0.5;exitY=0;exitDx=0;exitDy=0;entryX=0.5;entryY=1;entryDx=0;entryDy=0;" edge="1" parent="1" source="d-lJAG2xxgMc8Fnp8zXW-286" target="d-lJAG2xxgMc8Fnp8zXW-268">
          <mxGeometry relative="1" as="geometry">
            <mxPoint x="430" y="10" as="sourcePoint" />
            <mxPoint x="590" y="10" as="targetPoint" />
          </mxGeometry>
        </mxCell>
        <mxCell id="d-lJAG2xxgMc8Fnp8zXW-290" value="1" style="resizable=0;html=1;whiteSpace=wrap;align=right;verticalAlign=bottom;" connectable="0" vertex="1" parent="d-lJAG2xxgMc8Fnp8zXW-289">
          <mxGeometry x="1" relative="1" as="geometry">
            <mxPoint y="20" as="offset" />
          </mxGeometry>
        </mxCell>
        <mxCell id="d-lJAG2xxgMc8Fnp8zXW-291" value="Paysfor" style="shape=rhombus;perimeter=rhombusPerimeter;whiteSpace=wrap;html=1;align=center;" vertex="1" parent="1">
          <mxGeometry x="600" y="470" width="90.59" height="50" as="geometry" />
        </mxCell>
        <mxCell id="d-lJAG2xxgMc8Fnp8zXW-293" value="" style="shape=link;html=1;rounded=0;exitX=0.5;exitY=1;exitDx=0;exitDy=0;entryX=0.5;entryY=0;entryDx=0;entryDy=0;" edge="1" parent="1" source="d-lJAG2xxgMc8Fnp8zXW-291" target="d-lJAG2xxgMc8Fnp8zXW-79">
          <mxGeometry relative="1" as="geometry">
            <mxPoint x="470" y="290" as="sourcePoint" />
            <mxPoint x="630" y="290" as="targetPoint" />
          </mxGeometry>
        </mxCell>
        <mxCell id="d-lJAG2xxgMc8Fnp8zXW-294" value="1" style="resizable=0;html=1;whiteSpace=wrap;align=right;verticalAlign=bottom;" connectable="0" vertex="1" parent="d-lJAG2xxgMc8Fnp8zXW-293">
          <mxGeometry x="1" relative="1" as="geometry" />
        </mxCell>
        <mxCell id="d-lJAG2xxgMc8Fnp8zXW-295" value="" style="shape=link;html=1;rounded=0;exitX=0.5;exitY=0;exitDx=0;exitDy=0;entryX=0;entryY=1;entryDx=0;entryDy=0;" edge="1" parent="1" source="d-lJAG2xxgMc8Fnp8zXW-291" target="d-lJAG2xxgMc8Fnp8zXW-222">
          <mxGeometry relative="1" as="geometry">
            <mxPoint x="470" y="290" as="sourcePoint" />
            <mxPoint x="630" y="290" as="targetPoint" />
          </mxGeometry>
        </mxCell>
        <mxCell id="d-lJAG2xxgMc8Fnp8zXW-296" value="1" style="resizable=0;html=1;whiteSpace=wrap;align=right;verticalAlign=bottom;" connectable="0" vertex="1" parent="d-lJAG2xxgMc8Fnp8zXW-295">
          <mxGeometry x="1" relative="1" as="geometry" />
        </mxCell>
        <mxCell id="d-lJAG2xxgMc8Fnp8zXW-301" value="Receives" style="shape=rhombus;perimeter=rhombusPerimeter;whiteSpace=wrap;html=1;align=center;" vertex="1" parent="1">
          <mxGeometry x="450" y="339.61" width="80" height="50" as="geometry" />
        </mxCell>
        <mxCell id="d-lJAG2xxgMc8Fnp8zXW-305" value="" style="endArrow=none;html=1;rounded=0;entryX=0;entryY=1;entryDx=0;entryDy=0;exitX=1;exitY=0.5;exitDx=0;exitDy=0;" edge="1" parent="1" source="d-lJAG2xxgMc8Fnp8zXW-301" target="d-lJAG2xxgMc8Fnp8zXW-173">
          <mxGeometry relative="1" as="geometry">
            <mxPoint x="440" y="560" as="sourcePoint" />
            <mxPoint x="600" y="560" as="targetPoint" />
          </mxGeometry>
        </mxCell>
        <mxCell id="d-lJAG2xxgMc8Fnp8zXW-306" value="1" style="resizable=0;html=1;whiteSpace=wrap;align=right;verticalAlign=bottom;" connectable="0" vertex="1" parent="d-lJAG2xxgMc8Fnp8zXW-305">
          <mxGeometry x="1" relative="1" as="geometry" />
        </mxCell>
        <mxCell id="d-lJAG2xxgMc8Fnp8zXW-307" value="" style="shape=link;html=1;rounded=0;exitX=0;exitY=0.5;exitDx=0;exitDy=0;entryX=0.5;entryY=0;entryDx=0;entryDy=0;" edge="1" parent="1" source="d-lJAG2xxgMc8Fnp8zXW-301" target="d-lJAG2xxgMc8Fnp8zXW-232">
          <mxGeometry relative="1" as="geometry">
            <mxPoint x="440" y="560" as="sourcePoint" />
            <mxPoint x="600" y="560" as="targetPoint" />
          </mxGeometry>
        </mxCell>
        <mxCell id="d-lJAG2xxgMc8Fnp8zXW-308" value="M" style="resizable=0;html=1;whiteSpace=wrap;align=right;verticalAlign=bottom;" connectable="0" vertex="1" parent="d-lJAG2xxgMc8Fnp8zXW-307">
          <mxGeometry x="1" relative="1" as="geometry" />
        </mxCell>
        <mxCell id="d-lJAG2xxgMc8Fnp8zXW-309" value="Writes" style="shape=rhombus;perimeter=rhombusPerimeter;whiteSpace=wrap;html=1;align=center;" vertex="1" parent="1">
          <mxGeometry x="250" y="570" width="100" height="50" as="geometry" />
        </mxCell>
        <mxCell id="d-lJAG2xxgMc8Fnp8zXW-310" value="" style="endArrow=none;html=1;rounded=0;exitX=0.5;exitY=0;exitDx=0;exitDy=0;entryX=0;entryY=1;entryDx=0;entryDy=0;" edge="1" parent="1" source="d-lJAG2xxgMc8Fnp8zXW-309" target="d-lJAG2xxgMc8Fnp8zXW-232">
          <mxGeometry relative="1" as="geometry">
            <mxPoint x="330" y="410" as="sourcePoint" />
            <mxPoint x="490" y="410" as="targetPoint" />
          </mxGeometry>
        </mxCell>
        <mxCell id="d-lJAG2xxgMc8Fnp8zXW-311" value="1" style="resizable=0;html=1;whiteSpace=wrap;align=right;verticalAlign=bottom;" connectable="0" vertex="1" parent="d-lJAG2xxgMc8Fnp8zXW-310">
          <mxGeometry x="1" relative="1" as="geometry" />
        </mxCell>
        <mxCell id="d-lJAG2xxgMc8Fnp8zXW-312" value="" style="shape=link;html=1;rounded=0;exitX=0.5;exitY=1;exitDx=0;exitDy=0;width=5;" edge="1" parent="1" source="d-lJAG2xxgMc8Fnp8zXW-309">
          <mxGeometry relative="1" as="geometry">
            <mxPoint x="330" y="410" as="sourcePoint" />
            <mxPoint x="300" y="691" as="targetPoint" />
          </mxGeometry>
        </mxCell>
        <mxCell id="d-lJAG2xxgMc8Fnp8zXW-313" value="N" style="resizable=0;html=1;whiteSpace=wrap;align=right;verticalAlign=bottom;" connectable="0" vertex="1" parent="d-lJAG2xxgMc8Fnp8zXW-312">
          <mxGeometry x="1" relative="1" as="geometry">
            <mxPoint x="-10" as="offset" />
          </mxGeometry>
        </mxCell>
        <mxCell id="d-lJAG2xxgMc8Fnp8zXW-317" value="Has" style="shape=rhombus;perimeter=rhombusPerimeter;whiteSpace=wrap;html=1;align=center;" vertex="1" parent="1">
          <mxGeometry x="160" y="535" width="60" height="30" as="geometry" />
        </mxCell>
        <mxCell id="d-lJAG2xxgMc8Fnp8zXW-319" value="" style="shape=link;html=1;rounded=0;exitX=0.5;exitY=0;exitDx=0;exitDy=0;entryX=0.867;entryY=0.951;entryDx=0;entryDy=0;entryPerimeter=0;" edge="1" parent="1" source="d-lJAG2xxgMc8Fnp8zXW-317" target="d-lJAG2xxgMc8Fnp8zXW-240">
          <mxGeometry relative="1" as="geometry">
            <mxPoint x="220" y="550" as="sourcePoint" />
            <mxPoint x="180" y="473" as="targetPoint" />
          </mxGeometry>
        </mxCell>
        <mxCell id="d-lJAG2xxgMc8Fnp8zXW-320" value="1" style="resizable=0;html=1;whiteSpace=wrap;align=right;verticalAlign=bottom;" connectable="0" vertex="1" parent="d-lJAG2xxgMc8Fnp8zXW-319">
          <mxGeometry x="1" relative="1" as="geometry" />
        </mxCell>
        <mxCell id="d-lJAG2xxgMc8Fnp8zXW-322" value="" style="shape=link;html=1;rounded=0;exitX=1;exitY=1;exitDx=0;exitDy=0;entryX=0.25;entryY=0;entryDx=0;entryDy=0;" edge="1" parent="1" source="d-lJAG2xxgMc8Fnp8zXW-317" target="d-lJAG2xxgMc8Fnp8zXW-70">
          <mxGeometry relative="1" as="geometry">
            <mxPoint x="220" y="550" as="sourcePoint" />
            <mxPoint x="380" y="550" as="targetPoint" />
          </mxGeometry>
        </mxCell>
        <mxCell id="d-lJAG2xxgMc8Fnp8zXW-323" value="1" style="resizable=0;html=1;whiteSpace=wrap;align=right;verticalAlign=bottom;" connectable="0" vertex="1" parent="d-lJAG2xxgMc8Fnp8zXW-322">
          <mxGeometry x="1" relative="1" as="geometry">
            <mxPoint x="-9" as="offset" />
          </mxGeometry>
        </mxCell>
      </root>
    </mxGraphModel>
  </diagram>
</mxfile>
